<svg width="500" height="500" viewBox="0 0 500 500" fill="none" xmlns="http://www.w3.org/2000/svg">
<g clip-path="url(#clip0_5_836)">
<rect width="500" height="500" rx="40" fill="black"/>
<path d="M13.08 343.08V185.44H37.72V161.36H122.84V185.44H147.76V271.12H122.84V295.2H48.64V343.08H13.08ZM48.64 256.84H111.92V199.72H48.64V256.84ZM181.791 343.08V185.44H206.431V161.36H291.551V185.44H316.471V271.12H291.551V295.2H217.351V343.08H181.791ZM217.351 256.84H280.631V199.72H217.351V256.84ZM375.142 343.08V319.28H350.502V280.92H386.062V305H449.342V271.12H375.142V247.32H350.502V185.44H375.142V161.36H460.262V185.44H485.182V223.52H449.342V199.72H386.062V233.32H460.262V256.84H485.182V319.28H460.262V343.08H375.142Z" fill="#9810FA"/>
</g>
<defs>
<clipPath id="clip0_5_836">
<rect width="500" height="500" rx="40" fill="white"/>
</clipPath>
</defs>
</svg>
